# xmcd
# 
# Track frame offsets:
#     183
#     11758
#     33928
#     80558
#     96858
#     108620
#     121058
#     133620
#     146058
#     157170
#     169608
#     180608
#     194795
#     216633
#     233295
#     253033
#     268543
#     285818
# 
# Disc length: 3962
# 
# Revision: 1
# Processed by: cddbd v1.5.2PL0 Copyright (c) Steve Scherf et al.
# Submitted via: fre:ac v1.1beta2
# 
DISCID=010f7812
DTITLE=Various Artist - Nina Simone, Dinah Washington and Sarah Vaughan
DYEAR=1960
DGENRE=Blues
TTITLE0=Nina Simone - I Loves You Porgy
TTITLE1=Nina Simone - Mississippi Goddam
TTITLE2=Nina Simone - Sinnerman
TTITLE3=Nina Simone - Ne Me Quitte Pas
TTITLE4=Nina Simone - I Put A Spell On You
TTITLE5=Nina Simone - Don´t Let Me Be Misunderstood
TTITLE6=Dinah Washington - Mad About The Boy
TTITLE7=Dinah Washington - Baby, You Got What It Takes
TTITLE8=Dinah Washington - Everytime We Say Goodbye
TTITLE9=Dinah Washington - Teach Me Tonight
TTITLE10=Dinah Washington - Everybody Loves Somebody
TTITLE11=Dinah Washington - Our Love Is Here To Stay
TTITLE12=Sarah Vaughan - Embraceable You
TTITLE13=Sarah Vaughan - Looking For A Boy
TTITLE14=Sarah Vaughan - My Man´s Gone Now
TTITLE15=Sarah Vaughan - I Wont Say I Will
TTITLE16=Sarah Vaughan - A Foggyday
TTITLE17=Sarah Vaughan - 'S Wonderfull
EXTD=YEAR: 1960 ID3G: 0
EXTT0=
EXTT1=
EXTT2=
EXTT3=
EXTT4=
EXTT5=
EXTT6=
EXTT7=
EXTT8=
EXTT9=
EXTT10=
EXTT11=
EXTT12=
EXTT13=
EXTT14=
EXTT15=
EXTT16=
EXTT17=
PLAYORDER=
